<svg xmlns="http://www.w3.org/2000/svg" width="20" height="20" fill="none" viewBox="0 0 20 20">
  <path fill="#0C1A30" fill-rule="evenodd" d="M4.483.815C.812 1.997-.827 6.005.405 9.83c.624 1.8 1.64 3.418 2.975 4.746a34.717 34.717 0 0 0 6.005 4.673l.245.147c.236.14.53.138.763-.006l.229-.143a34.695 34.695 0 0 0 5.995-4.665 12.42 12.42 0 0 0 2.977-4.737c1.235-3.837-.41-7.847-4.082-9.03l-.266-.079a6.571 6.571 0 0 0-4.982.62l-.268.158-.263-.158a6.562 6.562 0 0 0-5.25-.54Zm4.892 2.04.196.14c.26.186.61.182.865-.009a5.11 5.11 0 0 1 4.628-.78c2.846.917 4.14 4.075 3.142 7.176a10.935 10.935 0 0 1-2.614 4.159l-.528.501a33.217 33.217 0 0 1-4.595 3.574l-.468.294.143.09a33.22 33.22 0 0 1-5.738-4.466 10.942 10.942 0 0 1-2.614-4.168c-.994-3.088.295-6.244 3.14-7.16a5.1 5.1 0 0 1 4.443.648Zm4.495 1.629a.732.732 0 0 0-.445 1.392 1.98 1.98 0 0 1 1.363 1.725.731.731 0 0 0 1.458-.122 3.441 3.441 0 0 0-2.376-2.995Z" clip-rule="evenodd"/>
</svg>
