<svg width="8" height="8" viewBox="0 0 8 15" fill="none" xmlns="http://www.w3.org/2000/svg">
<path d="M2.60003 8.20704C2.41256 8.01951 2.30724 7.76521 2.30724 7.50004C2.30724 7.23488 2.41256 6.98057 2.60003 6.79304L7.18503 2.20704C7.36719 2.01844 7.46798 1.76584 7.4657 1.50364C7.46342 1.24144 7.35825 0.990631 7.17285 0.805223C6.98744 0.619815 6.73663 0.514645 6.47443 0.512367C6.21223 0.510088 5.95963 0.610883 5.77103 0.793041L1.18903 5.37904C0.626616 5.94162 0.310669 6.70455 0.310669 7.50004C0.310669 8.29553 0.626616 9.05846 1.18903 9.62104L5.77503 14.207C5.96363 14.3892 6.21623 14.49 6.47843 14.4877C6.74063 14.4854 6.99144 14.3803 7.17685 14.1949C7.36226 14.0095 7.46742 13.7586 7.4697 13.4964C7.47198 13.2342 7.37119 12.9816 7.18903 12.793L2.60003 8.20704Z" fill="#161616"/>
</svg>
